<svg width="25" height="24" viewBox="0 0 25 24" fill="none" xmlns="http://www.w3.org/2000/svg">
<g clip-path="url(#clip0_375_185)">
<path d="M17.8183 6.68306C17.6576 6.53832 17.4829 6.47294 17.3355 6.46934L7.96329 6.21603C7.54289 6.21521 7.2375 6.53752 7.22714 6.91262C7.21677 7.28772 7.54862 7.63842 7.92375 7.64874L15.6257 7.86247L6.16647 17.3217C5.88667 17.6015 5.88669 18.0551 6.16648 18.3349C6.44628 18.6147 6.89988 18.6147 7.17968 18.3349L16.6389 8.87568L16.8526 16.5776C16.863 16.9527 17.2136 17.2717 17.5888 17.2742C17.9769 17.2769 18.2957 16.9132 18.2853 16.5381L18.032 7.16593C18.0293 6.92266 17.9312 6.81168 17.8183 6.68306Z" fill="white"/>
</g>
<defs>
<clipPath id="clip0_375_185">
<rect width="24" height="24" fill="white" transform="translate(0.5)"/>
</clipPath>
</defs>
</svg>
