<svg width="74" height="48" viewBox="0 0 74 48" fill="none" xmlns="http://www.w3.org/2000/svg">
<path d="M12.9238 43.5605L24.3064 47.5626C25.8863 48.1205 27.1321 46.0588 26.0166 44.7369L23.0322 40.577C20.9879 37.721 19.9459 34.1978 20.0761 30.608L20.1328 29.0739H28.9047C31.2265 29.0739 33.1065 27.0546 33.1065 24.5745V5.51012C33.1065 2.65411 30.9489 0.34375 28.2817 0.34375H9.49204C4.78049 0.34375 0.952393 4.44288 0.952393 9.48802V25.8358C0.952393 33.8947 5.77717 41.0501 12.9408 43.5668L12.9238 43.5605Z" fill="#D9DCFC"/>
<path d="M52.865 43.5605L64.2475 47.5626C65.8274 48.1205 67.0733 46.0588 65.9578 44.7369L62.9734 40.577C60.929 37.721 59.8871 34.1978 60.0173 30.608L60.0739 29.0739H68.8458C71.1677 29.0739 73.0477 27.0546 73.0477 24.5745V5.51012C73.0477 2.65411 70.89 0.34375 68.2229 0.34375H49.4332C44.7217 0.34375 40.8936 4.44288 40.8936 9.48802V25.8358C40.8936 33.8947 45.7183 41.0501 52.8819 43.5668L52.865 43.5605Z" fill="#D9DCFC"/>
</svg>
