<svg width="16" height="16" viewBox="0 0 16 16" fill="none" xmlns="http://www.w3.org/2000/svg">
<path d="M7.99934 0C4.69466 0 2 2.80271 2 6.24058C2 11.4682 7.49217 15.098 7.72551 15.2551C7.80779 15.3119 7.90357 15.3333 8 15.3333C8.09578 15.3333 8.19221 15.3046 8.27449 15.2551C8.50783 15.1053 14 11.4756 14 6.24058C14 2.80339 11.3053 0.000684663 8.00066 0.000684663L7.99934 0ZM7.99934 8.7364C6.67579 8.7364 5.59974 7.61651 5.59974 6.24058C5.59974 4.86396 6.67645 3.74476 7.99934 3.74476C9.32289 3.74476 10.3989 4.86464 10.3989 6.24058C10.3989 7.6172 9.32223 8.7364 7.99934 8.7364Z" fill="#382176"/>
</svg>
