<svg width="24" height="24" viewBox="0 0 24 24" fill="none" xmlns="http://www.w3.org/2000/svg">
<path d="M6.35 10.936C6.11941 10.2535 6.00102 9.53387 6 8.80866C6.00004 7.53354 6.35919 6.28767 7.03115 5.23169C7.70311 4.17571 8.65706 3.35805 9.77 2.88413C9.22235 2.58482 8.61572 2.42807 8 2.42676C7.27882 2.4288 6.57157 2.63819 5.95312 3.03277C5.33466 3.42734 4.828 3.99242 4.48676 4.66821C4.14552 5.34399 3.9824 6.10533 4.01465 6.87164C4.04691 7.63796 4.27335 8.38075 4.67 9.02139C3.61839 9.33003 2.69054 9.99603 2.02794 10.9178C1.36533 11.8396 1.00434 12.9666 1 14.1269C1.00326 14.7993 1.20613 15.4534 1.57966 15.9959C1.95319 16.5384 2.47829 16.9415 3.08 17.1477C3.3895 14.7108 4.55847 12.4902 6.35 10.936Z" fill="white"/>
<path d="M19.33 9.02139C19.7266 8.38075 19.9531 7.63796 19.9853 6.87164C20.0176 6.10533 19.8545 5.34399 19.5132 4.66821C19.172 3.99242 18.6653 3.42734 18.0469 3.03277C17.4284 2.63819 16.7212 2.4288 16 2.42676C15.3843 2.42807 14.7776 2.58482 14.23 2.88413C15.3429 3.35805 16.2969 4.17571 16.9688 5.23169C17.6408 6.28767 17.9999 7.53354 18 8.80866C17.999 9.53387 17.8806 10.2535 17.65 10.936C19.4393 12.4876 20.6081 14.704 20.92 17.137C21.5201 16.9314 22.044 16.5299 22.4174 15.9896C22.7908 15.4492 22.9946 14.7975 23 14.1269C22.9956 12.9666 22.6346 11.8396 21.972 10.9178C21.3094 9.99603 20.3816 9.33003 19.33 9.02139Z" fill="white"/>
<path d="M15 11.649C15.5212 11.0391 15.8646 10.2813 15.9885 9.46765C16.1124 8.65405 16.0115 7.81967 15.698 7.06593C15.3845 6.31219 14.8719 5.67154 14.2225 5.22183C13.5731 4.77212 12.8149 4.53271 12.04 4.53271C11.2651 4.53271 10.5069 4.77212 9.85751 5.22183C9.20813 5.67154 8.69553 6.31219 8.38202 7.06593C8.0685 7.81967 7.96756 8.65405 8.09147 9.46765C8.21538 10.2813 8.5588 11.0391 9.08 11.649C7.86737 12.241 6.83906 13.1893 6.11621 14.3821C5.39336 15.575 5.00608 16.9627 5 18.3819C5 19.2282 5.31607 20.0398 5.87868 20.6382C6.44129 21.2367 7.20435 21.5729 8 21.5729H16C16.7956 21.5729 17.5587 21.2367 18.1213 20.6382C18.6839 20.0398 19 19.2282 19 18.3819C19.001 16.9719 18.6257 15.5907 17.9175 14.3987C17.2094 13.2068 16.1977 12.2533 15 11.649Z" fill="white"/>
</svg>
