<svg width="24" height="24" viewBox="0 0 24 24" fill="none" xmlns="http://www.w3.org/2000/svg">
<g clip-path="url(#clip0_413_3121)">
<path d="M19.7308 12.5095C19.7195 12.2935 19.6422 12.1238 19.5405 12.017L13.0925 5.21072C12.7958 4.91287 12.352 4.92484 12.0794 5.18275C11.8068 5.44064 11.7935 5.92329 12.0514 6.19584L17.3464 11.7931L3.96905 11.7931C3.57336 11.7931 3.25263 12.1138 3.25263 12.5095C3.25263 12.9052 3.57336 13.226 3.96905 13.226L17.3464 13.226L12.0514 18.8232C11.7936 19.0957 11.8159 19.5692 12.0794 19.8363C12.352 20.1126 12.8346 20.0809 13.0925 19.8083L19.5405 13.0021C19.7106 12.8281 19.7197 12.6803 19.7308 12.5095Z" fill="white"/>
</g>
<defs>
<clipPath id="clip0_413_3121">
<rect width="24" height="24" fill="white"/>
</clipPath>
</defs>
</svg>
