<svg width="24" height="24" viewBox="0 0 24 24" fill="none" xmlns="http://www.w3.org/2000/svg">
<path d="M11.9999 12.9544C15.1629 12.9544 17.7271 10.3902 17.7271 7.22718C17.7271 4.06415 15.1629 1.5 11.9999 1.5C8.83685 1.5 6.27271 4.06415 6.27271 7.22718C6.27271 10.3902 8.83685 12.9544 11.9999 12.9544Z" fill="white"/>
<path d="M15.8181 14.8638H8.18183C6.91605 14.8638 5.7021 15.3666 4.80706 16.2616C3.91201 17.1567 3.40918 18.3706 3.40918 19.6364C3.40918 20.3959 3.71088 21.1243 4.24791 21.6613C4.78493 22.1983 5.5133 22.5 6.27277 22.5H17.7271C18.4866 22.5 19.215 22.1983 19.752 21.6613C20.289 21.1243 20.5907 20.3959 20.5907 19.6364C20.5907 18.3706 20.0879 17.1567 19.1929 16.2616C18.2978 15.3666 17.0839 14.8638 15.8181 14.8638Z" fill="white"/>
</svg>
