<svg width="24" height="24" viewBox="0 0 24 24" fill="none" xmlns="http://www.w3.org/2000/svg">
<path d="M21.8909 17.9363L17.2273 13.2908L14.2364 16.2817C14.1514 16.366 14.0507 16.4327 13.9399 16.4779C13.8292 16.5231 13.7106 16.5461 13.5909 16.5454C13.4713 16.5461 13.3527 16.5231 13.2419 16.4779C13.1311 16.4327 13.0304 16.366 12.9455 16.2817L8.13636 11.4727L2.16364 17.5363C2.11146 17.5734 2.05678 17.6068 2 17.6363C2.04699 18.81 2.54655 19.92 3.39394 20.7335C4.24134 21.547 5.37078 22.0009 6.54545 21.9999H17.4545C18.566 21.9938 19.6368 21.5807 20.4643 20.8386C21.2918 20.0965 21.8188 19.0769 21.9455 17.9727L21.8909 17.9363Z" fill="white"/>
<path d="M6.84545 10.1818C7.01448 10.0114 7.21557 9.87614 7.43713 9.78383C7.6587 9.69153 7.89634 9.644 8.13636 9.644C8.37639 9.644 8.61403 9.69153 8.83559 9.78383C9.05716 9.87614 9.25825 10.0114 9.42727 10.1818L13.5909 14.3545L15.9364 12C16.1054 11.8296 16.3065 11.6943 16.528 11.602C16.7496 11.5097 16.9873 11.4622 17.2273 11.4622C17.4673 11.4622 17.7049 11.5097 17.9265 11.602C18.1481 11.6943 18.3492 11.8296 18.5182 12L22 15.4818V6.54545C22 5.94854 21.8824 5.35746 21.654 4.80598C21.4256 4.2545 21.0908 3.75342 20.6687 3.33133C20.2466 2.90925 19.7455 2.57443 19.194 2.346C18.6425 2.11757 18.0515 2 17.4545 2H6.54545C5.94854 2 5.35746 2.11757 4.80598 2.346C4.2545 2.57443 3.75342 2.90925 3.33133 3.33133C2.47889 4.18377 2 5.33993 2 6.54545V15.1091L6.84545 10.1818ZM16.5455 6.54545C16.8152 6.54545 17.0788 6.62543 17.3031 6.77527C17.5273 6.92511 17.7021 7.13808 17.8053 7.38725C17.9085 7.63642 17.9355 7.9106 17.8829 8.17512C17.8303 8.43964 17.7004 8.68262 17.5097 8.87333C17.319 9.06404 17.076 9.19391 16.8115 9.24653C16.547 9.29914 16.2728 9.27214 16.0236 9.16893C15.7744 9.06572 15.5615 8.89094 15.4116 8.66669C15.2618 8.44244 15.1818 8.17879 15.1818 7.90909C15.1818 7.54743 15.3255 7.20059 15.5812 6.94485C15.8369 6.68912 16.1838 6.54545 16.5455 6.54545Z" fill="white"/>
</svg>
