<svg width="24" height="24" viewBox="0 0 24 24" fill="none" xmlns="http://www.w3.org/2000/svg">
<g clip-path="url(#clip0_375_191)">
<path d="M12 1C18.6274 1 24 5.17682 24 10.3306C24 15.4832 18.6274 19.66 12 19.66C11.3401 19.6604 10.6808 19.6185 10.0263 19.5346L4.98857 22.8211C4.416 23.1232 4.21371 23.0902 4.44914 22.3503L5.46857 18.1576C2.17714 16.4932 0 13.6091 0 10.3306C0 5.17796 5.37257 1 12 1ZM18.7509 10.1881L20.4309 8.56478C20.5278 8.46436 20.5819 8.33033 20.5817 8.19092C20.5815 8.05152 20.5271 7.91762 20.43 7.81743C20.3328 7.71725 20.2004 7.65859 20.0607 7.65383C19.921 7.64906 19.785 7.69856 19.6811 7.79189L17.4777 9.91906V8.16123C17.4777 8.01853 17.4209 7.88167 17.3197 7.78077C17.2186 7.67986 17.0814 7.62317 16.9383 7.62317C16.7952 7.62317 16.658 7.67986 16.5569 7.78077C16.4557 7.88167 16.3989 8.01853 16.3989 8.16123V11.0761C16.3786 11.1593 16.3786 11.246 16.3989 11.3292V12.9696C16.3989 13.1123 16.4557 13.2492 16.5569 13.3501C16.658 13.451 16.7952 13.5077 16.9383 13.5077C17.0814 13.5077 17.2186 13.451 17.3197 13.3501C17.4209 13.2492 17.4777 13.1123 17.4777 12.9696V11.4158L17.9657 10.945L19.5977 13.2626C19.6385 13.3204 19.6902 13.3697 19.7501 13.4076C19.8099 13.4455 19.8767 13.4713 19.9465 13.4835C20.0163 13.4956 20.0879 13.494 20.1571 13.4786C20.2262 13.4632 20.2917 13.4343 20.3497 13.3937C20.4077 13.353 20.4571 13.3014 20.4951 13.2417C20.5331 13.182 20.559 13.1154 20.5712 13.0458C20.5834 12.9761 20.5817 12.9047 20.5663 12.8357C20.5508 12.7667 20.5219 12.7014 20.4811 12.6436L18.7509 10.1869V10.1881ZM15.3703 12.3814H13.7017V8.17833C13.6953 8.04006 13.6358 7.90957 13.5354 7.81397C13.4351 7.71838 13.3016 7.66503 13.1629 7.66503C13.0241 7.66503 12.8907 7.71838 12.7903 7.81397C12.6899 7.90957 12.6304 8.04006 12.624 8.17833V12.9194C12.624 13.2158 12.864 13.4575 13.1623 13.4575H15.3703C15.5134 13.4575 15.6506 13.4008 15.7517 13.2999C15.8529 13.199 15.9097 13.0621 15.9097 12.9194C15.9097 12.7767 15.8529 12.6399 15.7517 12.539C15.6506 12.4381 15.5134 12.3814 15.3703 12.3814ZM8.67657 11.1365L9.472 9.19062L10.2011 11.1365H8.67657ZM11.56 11.6928L11.5623 11.6746C11.562 11.539 11.5101 11.4087 11.4171 11.3098L10.2217 8.11792C10.1716 7.96581 10.0761 7.83258 9.9481 7.73602C9.82006 7.63947 9.66552 7.58419 9.50514 7.57758C9.34359 7.57687 9.18565 7.62524 9.05233 7.71627C8.91902 7.8073 8.81665 7.93666 8.75886 8.08714L6.86057 12.7325C6.83378 12.7979 6.82017 12.8679 6.82052 12.9386C6.82087 13.0093 6.83517 13.0792 6.8626 13.1443C6.89003 13.2095 6.93006 13.2686 6.98041 13.3183C7.03075 13.3681 7.09041 13.4074 7.156 13.4341C7.22159 13.4608 7.29181 13.4744 7.36265 13.4741C7.4335 13.4737 7.50358 13.4595 7.5689 13.4321C7.63422 13.4047 7.6935 13.3648 7.74334 13.3146C7.79319 13.2644 7.83264 13.2049 7.85943 13.1394L8.23657 12.2127H10.6023L10.944 13.1246C10.9672 13.1928 11.0039 13.2556 11.052 13.3094C11.1 13.3631 11.1583 13.4067 11.2235 13.4376C11.2888 13.4684 11.3595 13.4859 11.4316 13.489C11.5038 13.4921 11.5758 13.4807 11.6434 13.4555C11.711 13.4303 11.7729 13.3919 11.8253 13.3424C11.8778 13.293 11.9197 13.2335 11.9487 13.1676C11.9777 13.1016 11.9932 13.0306 11.9941 12.9586C11.9951 12.8866 11.9815 12.8151 11.9543 12.7484L11.56 11.6928ZM7.76343 8.18403C7.76343 8.04153 7.70675 7.90484 7.60584 7.80397C7.50492 7.7031 7.36801 7.64628 7.22514 7.64597H3.51657C3.37351 7.64597 3.2363 7.70266 3.13514 7.80357C3.03398 7.90447 2.97714 8.04133 2.97714 8.18403C2.97714 8.32674 3.03398 8.4636 3.13514 8.5645C3.2363 8.66541 3.37351 8.7221 3.51657 8.7221H4.84229V12.981C4.84229 13.1237 4.89912 13.2606 5.00028 13.3615C5.10144 13.4624 5.23865 13.5191 5.38171 13.5191C5.52478 13.5191 5.66199 13.4624 5.76315 13.3615C5.86431 13.2606 5.92114 13.1237 5.92114 12.981V8.7221H7.224C7.52229 8.7221 7.76343 8.48042 7.76343 8.18403Z" fill="#382176"/>
</g>
<defs>
<clipPath id="clip0_375_191">
<rect width="24" height="24" fill="white"/>
</clipPath>
</defs>
</svg>
