<svg width="48" height="48" viewBox="0 0 48 48" fill="none" xmlns="http://www.w3.org/2000/svg">
<rect width="48" height="48" rx="24" fill="#D9DCFC"/>
<path d="M31 15.1V14C31 13.7348 30.8946 13.4804 30.7071 13.2929C30.5196 13.1054 30.2652 13 30 13C29.7348 13 29.4804 13.1054 29.2929 13.2929C29.1054 13.4804 29 13.7348 29 14V15H25V14C25 13.7348 24.8946 13.4804 24.7071 13.2929C24.5196 13.1054 24.2652 13 24 13C23.7348 13 23.4804 13.1054 23.2929 13.2929C23.1054 13.4804 23 13.7348 23 14V15H19V14C19 13.7348 18.8946 13.4804 18.7071 13.2929C18.5196 13.1054 18.2652 13 18 13C17.7348 13 17.4804 13.1054 17.2929 13.2929C17.1054 13.4804 17 13.7348 17 14V15.1C15.8706 15.3305 14.8556 15.9442 14.1267 16.8371C13.3978 17.73 12.9998 18.8473 13 20V30C13 30.6566 13.1293 31.3068 13.3806 31.9134C13.6319 32.52 14.0002 33.0712 14.4645 33.5355C15.4021 34.4732 16.6739 35 18 35H30C30.6566 35 31.3068 34.8707 31.9134 34.6194C32.52 34.3681 33.0712 33.9998 33.5355 33.5355C33.9998 33.0712 34.3681 32.52 34.6194 31.9134C34.8707 31.3068 35 30.6566 35 30V20C35.0002 18.8473 34.6022 17.73 33.8733 16.8371C33.1444 15.9442 32.1294 15.3305 31 15.1ZM18.5 30C18.2033 30 17.9133 29.912 17.6666 29.7472C17.42 29.5824 17.2277 29.3481 17.1142 29.074C17.0006 28.7999 16.9709 28.4983 17.0288 28.2074C17.0867 27.9164 17.2296 27.6491 17.4393 27.4393C17.6491 27.2296 17.9164 27.0867 18.2074 27.0288C18.4983 26.9709 18.7999 27.0006 19.074 27.1142C19.3481 27.2277 19.5824 27.42 19.7472 27.6666C19.912 27.9133 20 28.2033 20 28.5C20 28.8978 19.842 29.2794 19.5607 29.5607C19.2794 29.842 18.8978 30 18.5 30ZM18.5 25C18.2033 25 17.9133 24.912 17.6666 24.7472C17.42 24.5824 17.2277 24.3481 17.1142 24.074C17.0006 23.7999 16.9709 23.4983 17.0288 23.2074C17.0867 22.9164 17.2296 22.6491 17.4393 22.4393C17.6491 22.2296 17.9164 22.0867 18.2074 22.0288C18.4983 21.9709 18.7999 22.0006 19.074 22.1142C19.3481 22.2277 19.5824 22.42 19.7472 22.6666C19.912 22.9133 20 23.2033 20 23.5C20 23.8978 19.842 24.2794 19.5607 24.5607C19.2794 24.842 18.8978 25 18.5 25ZM24 30C23.7033 30 23.4133 29.912 23.1666 29.7472C22.92 29.5824 22.7277 29.3481 22.6142 29.074C22.5006 28.7999 22.4709 28.4983 22.5288 28.2074C22.5867 27.9164 22.7296 27.6491 22.9393 27.4393C23.1491 27.2296 23.4164 27.0867 23.7074 27.0288C23.9983 26.9709 24.2999 27.0006 24.574 27.1142C24.8481 27.2277 25.0824 27.42 25.2472 27.6666C25.412 27.9133 25.5 28.2033 25.5 28.5C25.5 28.8978 25.342 29.2794 25.0607 29.5607C24.7794 29.842 24.3978 30 24 30ZM24 25C23.7033 25 23.4133 24.912 23.1666 24.7472C22.92 24.5824 22.7277 24.3481 22.6142 24.074C22.5006 23.7999 22.4709 23.4983 22.5288 23.2074C22.5867 22.9164 22.7296 22.6491 22.9393 22.4393C23.1491 22.2296 23.4164 22.0867 23.7074 22.0288C23.9983 21.9709 24.2999 22.0006 24.574 22.1142C24.8481 22.2277 25.0824 22.42 25.2472 22.6666C25.412 22.9133 25.5 23.2033 25.5 23.5C25.5 23.8978 25.342 24.2794 25.0607 24.5607C24.7794 24.842 24.3978 25 24 25ZM29.5 30C29.2033 30 28.9133 29.912 28.6666 29.7472C28.42 29.5824 28.2277 29.3481 28.1142 29.074C28.0007 28.7999 27.9709 28.4983 28.0288 28.2074C28.0867 27.9164 28.2296 27.6491 28.4393 27.4393C28.6491 27.2296 28.9164 27.0867 29.2074 27.0288C29.4983 26.9709 29.7999 27.0006 30.074 27.1142C30.3481 27.2277 30.5824 27.42 30.7472 27.6666C30.912 27.9133 31 28.2033 31 28.5C31 28.8978 30.842 29.2794 30.5607 29.5607C30.2794 29.842 29.8978 30 29.5 30ZM29.5 25C29.2033 25 28.9133 24.912 28.6666 24.7472C28.42 24.5824 28.2277 24.3481 28.1142 24.074C28.0007 23.7999 27.9709 23.4983 28.0288 23.2074C28.0867 22.9164 28.2296 22.6491 28.4393 22.4393C28.6491 22.2296 28.9164 22.0867 29.2074 22.0288C29.4983 21.9709 29.7999 22.0006 30.074 22.1142C30.3481 22.2277 30.5824 22.42 30.7472 22.6666C30.912 22.9133 31 23.2033 31 23.5C31 23.8978 30.842 24.2794 30.5607 24.5607C30.2794 24.842 29.8978 25 29.5 25Z" fill="white"/>
</svg>
