<svg width="24" height="24" viewBox="0 0 24 24" fill="none" xmlns="http://www.w3.org/2000/svg">
<path d="M12 1C9.82441 1 7.69767 1.64514 5.88873 2.85383C4.07979 4.06253 2.66989 5.78049 1.83733 7.79048C1.00477 9.80047 0.786929 12.0122 1.21137 14.146C1.6358 16.2798 2.68345 18.2398 4.22183 19.7782C5.76021 21.3165 7.72022 22.3642 9.85401 22.7886C11.9878 23.2131 14.1995 22.9952 16.2095 22.1627C18.2195 21.3301 19.9375 19.9202 21.1462 18.1113C22.3549 16.3023 23 14.1756 23 12C23 9.08262 21.8411 6.28472 19.7782 4.22182C17.7153 2.15893 14.9174 1 12 1ZM20.21 8.32L16.15 9.22C15.7851 8.67382 15.3162 8.20489 14.77 7.84L15.67 3.84C17.6737 4.73746 19.286 6.32838 20.21 8.32ZM12 15C11.4067 15 10.8266 14.824 10.3333 14.4944C9.83994 14.1648 9.45543 13.6962 9.22836 13.148C9.0013 12.5999 8.94189 11.9967 9.05765 11.4147C9.1734 10.8328 9.45912 10.2982 9.87868 9.87868C10.2982 9.45912 10.8328 9.1734 11.4147 9.05764C11.9967 8.94189 12.5999 9.0013 13.1481 9.22836C13.6962 9.45542 14.1648 9.83994 14.4944 10.3333C14.8241 10.8266 15 11.4067 15 12C15 12.7956 14.6839 13.5587 14.1213 14.1213C13.5587 14.6839 12.7957 15 12 15ZM8.32 3.79L9.22 7.85C8.67382 8.21489 8.20489 8.68382 7.84 9.23L3.84 8.33C4.73747 6.32626 6.32838 4.71404 8.32 3.79ZM3.79 15.68L7.85 14.78C8.21489 15.3262 8.68382 15.7951 9.23 16.16L8.33 20.21C6.31761 19.3002 4.70422 17.6904 3.79 15.68ZM15.68 20.21L14.78 16.15C15.3262 15.7851 15.7951 15.3162 16.16 14.77L20.21 15.67C19.3002 17.6824 17.6904 19.2958 15.68 20.21Z" fill="white"/>
</svg>
