<svg width="24" height="24" viewBox="0 0 24 24" fill="none" xmlns="http://www.w3.org/2000/svg">
<path d="M21.4163 4.68982C20.8392 3.89561 20.0894 3.24269 19.2234 2.78024C18.3573 2.31778 17.3977 2.05785 16.4167 2.02C14.7755 2.08924 13.211 2.73345 11.9969 3.83988C10.7832 2.72401 9.21441 2.07243 7.56723 2C6.58452 2.04017 5.62379 2.30319 4.75765 2.76917C3.89151 3.23516 3.14262 3.89192 2.56756 4.68982C0.287713 7.52964 0.567695 12.4593 3.11753 16.4191C5.03586 19.2424 7.49682 21.6557 10.3571 23.5186C10.8426 23.8328 11.4086 24 11.9869 24C12.5653 24 13.1313 23.8328 13.6168 23.5186C16.4794 21.6587 18.9409 19.2448 20.8564 16.4191C23.4662 12.4593 23.6962 7.52964 21.4163 4.68982ZM17.9965 13.9992H16.2867C16.1122 13.9982 15.941 13.9515 15.7901 13.8637C15.6392 13.776 15.514 13.6504 15.4267 13.4992L14.9967 12.7793L12.8669 16.499C12.7788 16.6516 12.6519 16.7782 12.4992 16.866C12.3464 16.9538 12.1731 16.9997 11.9969 16.999H11.877C11.6816 16.975 11.4978 16.8938 11.3483 16.7658C11.1989 16.6377 11.0906 16.4684 11.037 16.2791L9.78709 11.8993L9.10713 13.4092C9.02827 13.5847 8.90048 13.7337 8.73909 13.8383C8.57769 13.9429 8.38954 13.9988 8.19719 13.9992H5.99734C5.73214 13.9992 5.4778 13.8939 5.29028 13.7063C5.10275 13.5188 4.9974 13.2645 4.9974 12.9993C4.9974 12.7341 5.10275 12.4797 5.29028 12.2922C5.4778 12.1047 5.73214 11.9993 5.99734 11.9993H7.54724L9.08713 8.58957C9.16395 8.38888 9.30337 8.21827 9.48474 8.10302C9.66611 7.98778 9.87979 7.93403 10.0941 7.94974C10.3084 7.96545 10.512 8.04978 10.6746 8.19024C10.8372 8.3307 10.9503 8.51981 10.997 8.72956L12.3469 13.4492L14.1668 10.2795C14.2549 10.1269 14.3818 10.0003 14.5345 9.91246C14.6873 9.82466 14.8605 9.77879 15.0367 9.77949C15.2112 9.78054 15.3824 9.82724 15.5333 9.91495C15.6842 10.0027 15.8094 10.1283 15.8967 10.2795L16.8966 11.9993H17.9965C18.2617 11.9993 18.5161 12.1047 18.7036 12.2922C18.8911 12.4797 18.9965 12.7341 18.9965 12.9993C18.9965 13.2645 18.8911 13.5188 18.7036 13.7063C18.5161 13.8939 18.2617 13.9992 17.9965 13.9992Z" fill="white"/>
</svg>
