<svg width="48" height="48" viewBox="0 0 48 48" fill="none" xmlns="http://www.w3.org/2000/svg">
<rect width="48" height="48" rx="24" fill="#D9DCFC"/>
<path d="M30 13H18C17.3434 13 16.6932 13.1293 16.0866 13.3806C15.48 13.6319 14.9288 14.0002 14.4645 14.4645C13.5268 15.4021 13 16.6739 13 18V30C13 30.6566 13.1293 31.3068 13.3806 31.9134C13.6319 32.52 14.0002 33.0712 14.4645 33.5355C15.4021 34.4732 16.6739 35 18 35H30C30.6566 35 31.3068 34.8707 31.9134 34.6194C32.52 34.3681 33.0712 33.9998 33.5355 33.5355C33.9998 33.0712 34.3681 32.52 34.6194 31.9134C34.8707 31.3068 35 30.6566 35 30V18C35 17.3434 34.8707 16.6932 34.6194 16.0866C34.3681 15.48 33.9998 14.9288 33.5355 14.4645C33.0712 14.0002 32.52 13.6319 31.9134 13.3806C31.3068 13.1293 30.6566 13 30 13ZM23 18C23 17.7348 23.1054 17.4804 23.2929 17.2929C23.4804 17.1054 23.7348 17 24 17C24.2652 17 24.5196 17.1054 24.7071 17.2929C24.8946 17.4804 25 17.7348 25 18V25C25 25.2652 24.8946 25.5196 24.7071 25.7071C24.5196 25.8946 24.2652 26 24 26C23.7348 26 23.4804 25.8946 23.2929 25.7071C23.1054 25.5196 23 25.2652 23 25V18ZM24 31C23.7033 31 23.4133 30.912 23.1666 30.7472C22.92 30.5824 22.7277 30.3481 22.6142 30.074C22.5006 29.7999 22.4709 29.4983 22.5288 29.2074C22.5867 28.9164 22.7296 28.6491 22.9393 28.4393C23.1491 28.2296 23.4164 28.0867 23.7074 28.0288C23.9983 27.9709 24.2999 28.0007 24.574 28.1142C24.8481 28.2277 25.0824 28.42 25.2472 28.6666C25.412 28.9133 25.5 29.2033 25.5 29.5C25.5 29.8978 25.342 30.2794 25.0607 30.5607C24.7794 30.842 24.3978 31 24 31Z" fill="white"/>
</svg>
