<svg width="48" height="48" viewBox="0 0 48 48" fill="none" xmlns="http://www.w3.org/2000/svg">
<rect width="48" height="48" rx="24" fill="#D9DCFC"/>
<path d="M24 13C21.8244 13 19.6977 13.6451 17.8887 14.8538C16.0798 16.0625 14.6699 17.7805 13.8373 19.7905C13.0048 21.8005 12.7869 24.0122 13.2114 26.146C13.6358 28.2798 14.6835 30.2398 16.2218 31.7782C17.7602 33.3166 19.7202 34.3642 21.854 34.7886C23.9878 35.2131 26.1995 34.9952 28.2095 34.1627C30.2195 33.3301 31.9375 31.9202 33.1462 30.1113C34.3549 28.3023 35 26.1756 35 24C35 21.0826 33.8411 18.2847 31.7782 16.2218C29.7153 14.1589 26.9174 13 24 13ZM23 23H25C25.7957 23 26.5587 23.3161 27.1213 23.8787C27.6839 24.4413 28 25.2044 28 26C28 26.7956 27.6839 27.5587 27.1213 28.1213C26.5587 28.6839 25.7957 29 25 29V30C25 30.2652 24.8946 30.5196 24.7071 30.7071C24.5196 30.8946 24.2652 31 24 31C23.7348 31 23.4804 30.8946 23.2929 30.7071C23.1054 30.5196 23 30.2652 23 30V29H21C20.7348 29 20.4804 28.8946 20.2929 28.7071C20.1054 28.5196 20 28.2652 20 28C20 27.7348 20.1054 27.4804 20.2929 27.2929C20.4804 27.1054 20.7348 27 21 27H25C25.2652 27 25.5196 26.8946 25.7071 26.7071C25.8946 26.5196 26 26.2652 26 26C26 25.7348 25.8946 25.4804 25.7071 25.2929C25.5196 25.1054 25.2652 25 25 25H23C22.2044 25 21.4413 24.6839 20.8787 24.1213C20.3161 23.5587 20 22.7956 20 22C20 21.2044 20.3161 20.4413 20.8787 19.8787C21.4413 19.3161 22.2044 19 23 19V18C23 17.7348 23.1054 17.4804 23.2929 17.2929C23.4804 17.1054 23.7348 17 24 17C24.2652 17 24.5196 17.1054 24.7071 17.2929C24.8946 17.4804 25 17.7348 25 18V19H27C27.2652 19 27.5196 19.1054 27.7071 19.2929C27.8946 19.4804 28 19.7348 28 20C28 20.2652 27.8946 20.5196 27.7071 20.7071C27.5196 20.8946 27.2652 21 27 21H23C22.7348 21 22.4804 21.1054 22.2929 21.2929C22.1054 21.4804 22 21.7348 22 22C22 22.2652 22.1054 22.5196 22.2929 22.7071C22.4804 22.8946 22.7348 23 23 23Z" fill="white"/>
</svg>
