<svg width="33" height="32" viewBox="0 0 33 32" fill="none" xmlns="http://www.w3.org/2000/svg">
<path d="M8.64177 15.6879C8.52389 15.6879 8.40601 15.662 8.30164 15.6226C7.79083 15.4255 7.54155 14.8602 7.72576 14.3478L11.6551 3.83824C11.8516 3.32587 12.4152 3.07584 12.926 3.26061C13.4368 3.45767 13.6861 4.023 13.5019 4.53537L9.57256 15.045C9.42889 15.4391 9.04822 15.6891 8.65528 15.6891L8.64177 15.6879Z" fill="white"/>
<path d="M23.049 13.0606C22.6425 13.0606 22.2496 12.7983 22.1195 12.3906L19.5003 4.50811C19.3296 3.99575 19.6047 3.43042 20.1155 3.26047C20.6398 3.08927 21.1899 3.36516 21.3594 3.87751L23.9785 11.76C24.1492 12.2724 23.8741 12.8377 23.3633 13.0077C23.259 13.0471 23.1534 13.0606 23.049 13.0606Z" fill="white"/>
<path d="M28.2886 11.0902H12.3489L10.8693 15.045C10.7256 15.4391 10.345 15.6892 9.95203 15.6892C9.83415 15.6892 9.71627 15.6633 9.61191 15.6239C9.10109 15.4268 8.85181 14.8615 9.03602 14.3491L10.2541 11.0779L4.71247 11.0767C3.45507 11.0767 2.41992 12.1149 2.41992 13.3761V14.5585C2.41992 14.7026 2.43343 14.8603 2.45922 15.0056L4.4239 24.8452C4.8819 27.1447 6.91291 28.8 9.24349 28.8H23.7563C26.0882 28.8 28.1179 27.1311 28.5759 24.8452L30.5406 15.0056C30.5664 14.8615 30.5799 14.7039 30.5799 14.5585V13.3761C30.5799 12.1149 29.5448 11.0767 28.2874 11.0767L28.2886 11.0902ZM18.4652 18.3163H14.5359C13.9993 18.3163 13.5535 17.8692 13.5535 17.3309C13.5535 16.7927 13.9993 16.3456 14.5359 16.3456H18.4652C19.0018 16.3456 19.4476 16.7927 19.4476 17.3309C19.4476 17.8692 19.0018 18.3163 18.4652 18.3163Z" fill="white"/>
</svg>
