<svg width="24" height="24" viewBox="0 0 24 24" fill="none" xmlns="http://www.w3.org/2000/svg">
<path fill-rule="evenodd" clip-rule="evenodd" d="M9.7829 18.5343C9.27993 17.9548 8.72582 18.2909 8.34494 18.3594C7.4903 18.5133 6.5793 18.1676 6.00538 17.5133L3.90999 22.0896L6.11493 21.7619C6.29338 21.7356 6.47808 21.8157 6.5793 21.98L7.82631 24L9.7829 18.5343ZM13.5875 18.5343L15.543 23.9989L16.79 21.979C16.8913 21.8146 17.076 21.7345 17.2544 21.7608L17.2555 21.7619L19.4604 22.0896L17.3838 17.5554C16.8339 18.2245 15.9803 18.5395 15.1016 18.3815C14.6738 18.3035 14.103 17.9401 13.5875 18.5343ZM15.8321 5.05952C12.1474 1.33886 5.82049 3.98789 5.82049 9.24793C5.82049 14.508 12.1474 17.157 15.8329 13.4353C18.1224 11.1224 18.1224 7.37209 15.8318 5.05925L15.8321 5.05952ZM11.6853 2.37888C17.7261 2.37888 20.7702 9.78864 16.4949 14.1046C12.2206 18.4206 4.88257 15.347 4.88257 9.24806C4.88257 5.45376 7.92849 2.37888 11.6853 2.37888ZM12.7246 18.0856C12.0745 18.6852 11.0759 18.6199 10.5082 17.9413L10.5071 17.9423C10.2442 17.6283 9.9092 17.4155 9.54292 17.3164C8.50567 17.0361 8.15505 17.8201 7.12822 17.2353C6.73376 17.0108 6.44055 16.6357 6.36019 16.1837H6.36228C6.29028 15.7801 6.10453 15.4261 5.83529 15.1542C5.06935 14.3808 4.28671 14.8581 3.72949 13.8898C3.50304 13.4957 3.48113 13.011 3.6387 12.5663H3.63974C3.77853 12.1796 3.7921 11.7802 3.69401 11.4093C3.41434 10.3556 2.52631 10.402 2.52631 9.24711C2.52631 8.09226 3.41434 8.1386 3.69401 7.0849C3.97159 6.03752 3.1952 5.68347 3.77436 4.64661H3.77645C3.99871 4.2483 4.36602 3.95327 4.81578 3.87213V3.87424C5.21545 3.80153 5.56607 3.61397 5.83529 3.3421C6.34975 2.82262 6.29445 2.4222 6.43844 2.01758H6.43948C6.6941 1.30527 7.36194 0.912221 8.1039 1.04604V1.04394C8.19886 1.0608 8.29695 1.08819 8.39818 1.12507C9.16412 1.40432 9.98328 1.18303 10.5092 0.552906C11.056 -0.101453 12.0265 -0.186802 12.6714 0.360078L12.6703 0.361132C13.0115 0.651949 13.1504 0.996528 13.8265 1.1788C14.4975 1.36004 14.7855 1.1377 15.1904 1.065V1.0671C15.9772 0.924853 16.859 1.47068 17.0072 2.31259C17.1501 3.11974 17.8482 3.81097 18.5526 3.8742C19.2622 3.93742 19.9749 4.68661 19.8069 5.63178H19.809C19.7328 6.06276 19.4876 6.38201 19.6744 7.0859C19.9541 8.13959 20.8421 8.09325 20.8421 9.2481C20.8421 10.403 19.9541 10.3566 19.6744 11.4103C19.4949 12.0878 19.7151 12.3787 19.7871 12.7875H19.785C19.8487 13.1458 19.7725 13.5251 19.592 13.8486C19.0045 14.9013 18.3064 14.3723 17.5321 15.1541L17.5331 15.1552C17.0155 15.6778 17.0761 16.0698 16.93 16.4786H16.9289C16.6284 17.3195 15.7831 17.6672 14.9703 17.3722V17.3711C14.5873 17.231 14.1908 17.2173 13.8245 17.3163C13.2662 17.4681 13.0826 17.7242 12.7246 18.0856Z" fill="#7763E0"/>
</svg>
