<svg width="48" height="48" viewBox="0 0 48 48" fill="none" xmlns="http://www.w3.org/2000/svg">
<rect width="48" height="48" rx="24" fill="#D9DCFC"/>
<path d="M18.35 22.9362C18.1194 22.2537 18.001 21.5341 18 20.8089C18 19.5338 18.3592 18.2879 19.0312 17.2319C19.7031 16.176 20.6571 15.3583 21.77 14.8844C21.2223 14.5851 20.6157 14.4283 20 14.427C19.2788 14.429 18.5716 14.6384 17.9531 15.033C17.3347 15.4276 16.828 15.9927 16.4868 16.6684C16.1455 17.3442 15.9824 18.1056 16.0147 18.8719C16.0469 19.6382 16.2733 20.381 16.67 21.0216C15.6184 21.3303 14.6905 21.9963 14.0279 22.9181C13.3653 23.8398 13.0043 24.9668 13 26.1272C13.0033 26.7996 13.2061 27.4537 13.5797 27.9962C13.9532 28.5386 14.4783 28.9417 15.08 29.1479C15.3895 26.711 16.5585 24.4904 18.35 22.9362Z" fill="white"/>
<path d="M31.33 21.0216C31.7266 20.381 31.9531 19.6382 31.9853 18.8719C32.0176 18.1056 31.8545 17.3442 31.5132 16.6684C31.172 15.9927 30.6653 15.4276 30.0469 15.033C29.4284 14.6384 28.7212 14.429 28 14.427C27.3843 14.4283 26.7776 14.5851 26.23 14.8844C27.3429 15.3583 28.2969 16.176 28.9688 17.2319C29.6408 18.2879 29.9999 19.5338 30 20.8089C29.999 21.5341 29.8806 22.2537 29.65 22.9362C31.4393 24.4879 32.6081 26.7042 32.92 29.1373C33.5201 28.9317 34.044 28.5302 34.4174 27.9898C34.7908 27.4495 34.9946 26.7977 35 26.1272C34.9956 24.9668 34.6346 23.8398 33.972 22.9181C33.3094 21.9963 32.3816 21.3303 31.33 21.0216Z" fill="white"/>
<path d="M27 23.6492C27.5212 23.0393 27.8646 22.2815 27.9885 21.4679C28.1124 20.6543 28.0115 19.8199 27.698 19.0662C27.3845 18.3124 26.8719 17.6718 26.2225 17.2221C25.5731 16.7724 24.8149 16.533 24.04 16.533C23.2651 16.533 22.5069 16.7724 21.8575 17.2221C21.2081 17.6718 20.6955 18.3124 20.382 19.0662C20.0685 19.8199 19.9676 20.6543 20.0915 21.4679C20.2154 22.2815 20.5588 23.0393 21.08 23.6492C19.8674 24.2412 18.8391 25.1895 18.1162 26.3824C17.3934 27.5752 17.0061 28.963 17 30.3821C17 31.2284 17.3161 32.0401 17.8787 32.6385C18.4413 33.2369 19.2044 33.5731 20 33.5731H28C28.7956 33.5731 29.5587 33.2369 30.1213 32.6385C30.6839 32.0401 31 31.2284 31 30.3821C31.001 28.9722 30.6257 27.5909 29.9175 26.399C29.2094 25.2071 28.1977 24.2535 27 23.6492Z" fill="white"/>
</svg>
