<svg width="48" height="48" viewBox="0 0 48 48" fill="none" xmlns="http://www.w3.org/2000/svg">
<rect width="48" height="48" rx="24" fill="#D9DCFC"/>
<path d="M33.4027 19H27.9927V13.59L33.4027 19ZM33.9927 22V30C33.9927 30.6566 33.8634 31.3068 33.6121 31.9134C33.3608 32.52 32.9925 33.0712 32.5282 33.5355C32.0639 33.9998 31.5127 34.3681 30.9061 34.6194C30.2995 34.8707 29.6493 35 28.9927 35H19.9927C18.2342 34.9969 16.5258 34.4145 15.1316 33.3429C13.7374 32.2712 12.7351 30.7701 12.2797 29.0716C11.8244 27.3731 11.9413 25.5719 12.6125 23.9466C13.2836 22.3213 14.4716 20.9623 15.9927 20.08V18C15.9927 16.6739 16.5195 15.4021 17.4572 14.4645C18.3948 13.5268 19.6666 13 20.9927 13H24.9927C25.2579 13 25.5123 13.1054 25.6998 13.2929C25.8873 13.4804 25.9927 13.7348 25.9927 14V19C25.9927 19.5304 26.2034 20.0391 26.5785 20.4142C26.9535 20.7893 27.4623 21 27.9927 21H32.9927C33.2579 21 33.5123 21.1054 33.6998 21.2929C33.8873 21.4804 33.9927 21.7348 33.9927 22ZM19.9927 33C21.1794 33 22.3394 32.6481 23.3261 31.9888C24.3128 31.3295 25.0818 30.3925 25.536 29.2961C25.9901 28.1997 26.1089 26.9933 25.8774 25.8295C25.6459 24.6656 25.0744 23.5965 24.2353 22.7574C23.3962 21.9182 22.3271 21.3468 21.1632 21.1153C19.9993 20.8838 18.7929 21.0026 17.6966 21.4567C16.6002 21.9108 15.6632 22.6799 15.0039 23.6666C14.3446 24.6533 13.9927 25.8133 13.9927 27C13.9927 28.5913 14.6248 30.1174 15.75 31.2426C16.8753 32.3679 18.4014 33 19.9927 33ZM20.9927 31C21.6557 30.9337 22.2653 30.6067 22.6872 30.091C23.1092 29.5753 23.309 28.913 23.2427 28.25C23.1764 27.587 22.8494 26.9774 22.3337 26.5555C21.818 26.1335 21.1557 25.9337 20.4927 26H19.4927C19.3601 26 19.2329 25.9473 19.1391 25.8536C19.0454 25.7598 18.9927 25.6326 18.9927 25.5C18.9927 25.3674 19.0454 25.2402 19.1391 25.1464C19.2329 25.0527 19.3601 25 19.4927 25H21.9927C22.2579 25 22.5123 24.8946 22.6998 24.7071C22.8873 24.5196 22.9927 24.2652 22.9927 24C22.9927 23.7348 22.8873 23.4804 22.6998 23.2929C22.5123 23.1054 22.2579 23 21.9927 23H20.9927C20.9927 22.7348 20.8873 22.4804 20.6998 22.2929C20.5123 22.1054 20.2579 22 19.9927 22C19.7275 22 19.4731 22.1054 19.2856 22.2929C19.098 22.4804 18.9927 22.7348 18.9927 23V23.05C18.3851 23.1734 17.845 23.5181 17.4773 24.0173C17.1096 24.5164 16.9405 25.1344 17.0028 25.7512C17.0651 26.3681 17.3544 26.9398 17.8145 27.3553C18.2746 27.7709 18.8727 28.0006 19.4927 28H20.4927C20.6253 28 20.7525 28.0527 20.8462 28.1464C20.94 28.2402 20.9927 28.3674 20.9927 28.5C20.9927 28.6326 20.94 28.7598 20.8462 28.8536C20.7525 28.9473 20.6253 29 20.4927 29H17.9927C17.7275 29 17.4731 29.1054 17.2856 29.2929C17.098 29.4804 16.9927 29.7348 16.9927 30C16.9927 30.2652 17.098 30.5196 17.2856 30.7071C17.4731 30.8946 17.7275 31 17.9927 31H18.9927C18.9927 31.2652 19.098 31.5196 19.2856 31.7071C19.4731 31.8946 19.7275 32 19.9927 32C20.2579 32 20.5123 31.8946 20.6998 31.7071C20.8873 31.5196 20.9927 31.2652 20.9927 31Z" fill="white"/>
</svg>
