<svg width="64" height="64" viewBox="0 0 64 64" fill="none" xmlns="http://www.w3.org/2000/svg">
<path fill-rule="evenodd" clip-rule="evenodd" d="M28.0553 45.3409C27.0118 44.1577 25.8622 44.844 25.072 44.9838C23.2989 45.2979 21.4088 44.5923 20.2181 43.2563L15.8707 52.5996L20.4454 51.9306C20.8156 51.8768 21.1988 52.0403 21.4088 52.3759L23.996 56.5L28.0553 45.3409ZM35.9488 45.3409L40.006 56.4978L42.5932 52.3737C42.8032 52.0381 43.1864 51.8746 43.5566 51.9284L43.5588 51.9305L48.1334 52.5996L43.8251 43.3422C42.6841 44.7083 40.9131 45.3515 39.0902 45.0289C38.2025 44.8697 37.0183 44.1276 35.9488 45.3409ZM40.6057 17.8299C32.961 10.2335 19.8345 15.6419 19.8345 26.3812C19.8345 37.1204 32.961 42.5289 40.6073 34.9303C45.3573 30.2082 45.3573 22.5513 40.6052 17.8293L40.6057 17.8299ZM32.0022 12.3569C44.5352 12.3569 50.8507 27.4851 41.9807 36.297C33.1129 45.1088 17.8885 38.8334 17.8885 26.3815C17.8885 18.6348 24.208 12.3569 32.0022 12.3569ZM34.1585 44.4248C32.8097 45.6489 30.7378 45.5155 29.5601 44.1301L29.5579 44.1322C29.0123 43.4911 28.3174 43.0566 27.5574 42.8543C25.4054 42.2821 24.678 43.8827 22.5476 42.6887C21.7292 42.2304 21.1209 41.4645 20.9542 40.5417H20.9585C20.8091 39.7177 20.4238 38.9949 19.8652 38.4398C18.2761 36.8608 16.6523 37.8353 15.4962 35.8582C15.0264 35.0537 14.981 34.064 15.3079 33.1562H15.31C15.598 32.3667 15.6261 31.5513 15.4226 30.794C14.8424 28.6427 13 28.7373 13 26.3795C13 24.0217 14.8424 24.1163 15.4226 21.965C15.9985 19.8266 14.3878 19.1038 15.5893 16.9868H15.5937C16.0548 16.1736 16.8169 15.5713 17.75 15.4056V15.4099C18.5792 15.2615 19.3066 14.8785 19.8652 14.3235C20.9325 13.2628 20.8178 12.4453 21.1165 11.6192H21.1187C21.647 10.1649 23.0325 9.36245 24.5719 9.63567V9.63137C24.7689 9.66579 24.9724 9.72173 25.1824 9.79702C26.7715 10.3671 28.4711 9.91534 29.5622 8.62885C30.6967 7.29287 32.7101 7.11861 34.0481 8.23516L34.0459 8.23731C34.7538 8.83106 35.0418 9.53458 36.4447 9.90671C37.8368 10.2767 38.4343 9.82281 39.2744 9.67437V9.67867C40.9068 9.38824 42.7362 10.5026 43.0436 12.2215C43.3402 13.8695 44.7886 15.2807 46.25 15.4098C47.7222 15.5389 49.2009 17.0685 48.8523 18.9982H48.8567C48.6986 19.8781 48.1898 20.5299 48.5774 21.967C49.1576 24.1183 51 24.0237 51 26.3815C51 28.7394 49.1576 28.6448 48.5774 30.7961C48.205 32.1793 48.6618 32.7731 48.8112 33.6079H48.8069C48.9389 34.3393 48.7809 35.1138 48.4063 35.7742C47.1875 37.9234 45.7391 36.8434 44.1327 38.4397L44.1348 38.4419C43.061 39.5089 43.1866 40.3092 42.8835 41.1439H42.8813C42.2578 42.8607 40.5041 43.5706 38.8176 42.9682V42.9661C38.0231 42.6799 37.2004 42.652 36.4404 42.8542C35.2822 43.164 34.9012 43.6869 34.1585 44.4248Z" fill="white"/>
</svg>
