<svg width="24" height="24" viewBox="0 0 24 24" fill="none" xmlns="http://www.w3.org/2000/svg">
<path d="M19.4911 13.6273L19.2571 12.2325C19.1364 11.4973 18.8391 10.8023 18.3907 10.2071C17.9423 9.61203 17.3563 9.1346 16.6828 8.8158V4.57531C16.9311 4.57531 17.1692 4.47668 17.3447 4.30113C17.5203 4.12558 17.6189 3.88748 17.6189 3.63922C17.6189 3.39095 17.5203 3.15285 17.3447 2.9773C17.1692 2.80175 16.9311 2.70312 16.6828 2.70312H7.3219C7.07363 2.70312 6.83553 2.80175 6.65998 2.9773C6.48443 3.15285 6.38581 3.39095 6.38581 3.63922C6.38581 3.88748 6.48443 4.12558 6.65998 4.30113C6.83553 4.47668 7.07363 4.57531 7.3219 4.57531V8.8158C6.65368 9.13813 6.07322 9.61711 5.62991 10.212C5.1866 10.8069 4.89356 11.5001 4.77573 12.2325L4.51362 13.6273C4.46829 13.8948 4.48164 14.169 4.55276 14.4308C4.62388 14.6927 4.75106 14.936 4.9255 15.1438C5.10445 15.3559 5.3283 15.5255 5.58085 15.6404C5.83341 15.7554 6.10836 15.8128 6.38581 15.8084H11.0663V22.361C11.0663 22.6093 11.1649 22.8474 11.3404 23.023C11.516 23.1985 11.7541 23.2971 12.0024 23.2971C12.2506 23.2971 12.4887 23.1985 12.6643 23.023C12.8398 22.8474 12.9384 22.6093 12.9384 22.361V15.8084H17.6189C17.8916 15.8086 18.1611 15.7493 18.4085 15.6345C18.6559 15.5197 18.8752 15.3522 19.0511 15.1438C19.2305 14.9383 19.3628 14.6961 19.4388 14.4342C19.5148 14.1723 19.5326 13.8969 19.4911 13.6273Z" fill="white"/>
</svg>
