<svg width="24" height="24" viewBox="0 0 24 24" fill="none" xmlns="http://www.w3.org/2000/svg">
<path d="M17.1226 1.875H6.87738C5.55105 1.87626 4.27941 2.4037 3.34155 3.34155C2.4037 4.27941 1.87626 5.55105 1.875 6.87738V17.1226C1.87626 18.4489 2.4037 19.7206 3.34155 20.6584C4.27941 21.5963 5.55105 22.1237 6.87738 22.125H17.1226C18.4488 22.1232 19.7201 21.5956 20.6579 20.6579C21.5956 19.7201 22.1232 18.4488 22.125 17.1226V6.87738C22.1232 5.55121 21.5956 4.27985 20.6579 3.34211C19.7201 2.40436 18.4488 1.87676 17.1226 1.875ZM17.0182 8.26641C16.7638 8.26609 16.5152 8.19035 16.3039 8.04877C16.0926 7.90718 15.928 7.7061 15.8309 7.47096C15.7338 7.23582 15.7087 6.97718 15.7586 6.72774C15.8086 6.4783 15.9313 6.24928 16.1114 6.06962C16.2915 5.88997 16.5209 5.76775 16.7704 5.71843C17.02 5.66911 17.2785 5.6949 17.5134 5.79254C17.7484 5.89017 17.949 6.05527 18.0901 6.26696C18.2312 6.47865 18.3063 6.72741 18.306 6.9818C18.3058 7.1507 18.2723 7.31791 18.2075 7.47388C18.1426 7.62985 18.0477 7.77152 17.9281 7.89081C17.8086 8.0101 17.6667 8.10466 17.5105 8.16911C17.3544 8.23355 17.1871 8.26661 17.0182 8.26641ZM12 7.17797C12.9537 7.17797 13.886 7.46078 14.679 7.99063C15.472 8.52048 16.09 9.27358 16.455 10.1547C16.8199 11.0358 16.9154 12.0053 16.7294 12.9407C16.5433 13.8761 16.0841 14.7353 15.4097 15.4097C14.7353 16.0841 13.8761 16.5433 12.9407 16.7294C12.0053 16.9154 11.0358 16.8199 10.1547 16.455C9.27358 16.09 8.52048 15.472 7.99063 14.679C7.46078 13.886 7.17797 12.9537 7.17797 12C7.17981 10.7217 7.68844 9.49625 8.59234 8.59234C9.49625 7.68844 10.7217 7.17981 12 7.17797Z" fill="#382176"/>
<path d="M12.0001 14.9015C12.5739 14.9015 13.1349 14.7314 13.612 14.4125C14.0892 14.0937 14.4611 13.6406 14.6807 13.1104C14.9003 12.5802 14.9577 11.9969 14.8458 11.434C14.7338 10.8712 14.4575 10.3542 14.0517 9.94845C13.6459 9.54267 13.1289 9.26634 12.5661 9.15438C12.0033 9.04243 11.4199 9.09989 10.8897 9.31949C10.3596 9.5391 9.90643 9.91098 9.58761 10.3881C9.2688 10.8653 9.09863 11.4262 9.09863 12.0001C9.09947 12.7693 9.40543 13.5068 9.94937 14.0508C10.4933 14.5947 11.2308 14.9007 12.0001 14.9015Z" fill="#382176"/>
</svg>
