<svg width="16" height="16" viewBox="0 0 16 16" fill="none" xmlns="http://www.w3.org/2000/svg">
<path fill-rule="evenodd" clip-rule="evenodd" d="M3.9973 1.32893C3.98193 1.329 3.96657 1.32987 3.95129 1.33153C3.72403 1.35788 3.55388 1.55244 3.55806 1.78119V2.22389H2.66918C1.9382 2.22389 1.33325 2.82883 1.33325 3.55982V5.78116H14.6665V3.55982C14.6665 2.82883 14.0659 2.22389 13.3349 2.22389H12.4478V2.67094C12.4478 3.2641 11.558 3.2641 11.558 2.67094L11.5563 1.78119C11.5611 1.51257 11.3284 1.30109 11.0615 1.33154C10.8339 1.35747 10.6633 1.55214 10.6674 1.78119V2.22389H8.89137V2.67094C8.89137 3.2641 8.00161 3.2641 8.00161 2.67094L7.99988 1.78119C8.00473 1.51257 7.77202 1.30109 7.50509 1.33154C7.27886 1.35911 7.11014 1.55332 7.11447 1.78119V2.22389H5.3341V2.67094C5.32131 3.24755 4.46839 3.24944 4.44695 2.67875V1.78119C4.45134 1.53064 4.24787 1.32598 3.9973 1.32893ZM1.33325 6.67004V13.3367C1.33325 14.0677 1.9382 14.6717 2.66918 14.6717H13.3349C14.0659 14.6717 14.6665 14.0677 14.6665 13.3367V6.67004H1.33325ZM4.44608 8.89225C4.69154 8.89225 4.89052 9.09124 4.89052 9.33669C4.89052 9.58215 4.69154 9.78114 4.44608 9.78114C4.20062 9.78114 4.00164 9.58215 4.00164 9.33669C4.00164 9.09124 4.20062 8.89225 4.44608 8.89225ZM8.00161 8.89225C8.24707 8.89225 8.44606 9.09124 8.44606 9.33669C8.44606 9.58215 8.24707 9.78114 8.00161 9.78114C7.75616 9.78114 7.55717 9.58215 7.55717 9.33669C7.55717 9.09124 7.75616 8.89225 8.00161 8.89225ZM11.5571 8.89225C11.8026 8.89225 12.0016 9.09124 12.0016 9.33669C12.0016 9.58215 11.8026 9.78114 11.5571 9.78114C11.3117 9.78114 11.1127 9.58215 11.1127 9.33669C11.1127 9.09124 11.3117 8.89225 11.5571 8.89225ZM4.44608 11.5589C4.69154 11.5589 4.89052 11.7579 4.89052 12.0033C4.89052 12.2488 4.69154 12.4478 4.44608 12.4478C4.20062 12.4478 4.00164 12.2488 4.00164 12.0033C4.00164 11.7579 4.20062 11.5589 4.44608 11.5589ZM8.00161 11.5589C8.24707 11.5589 8.44606 11.7579 8.44606 12.0033C8.44606 12.2488 8.24707 12.4478 8.00161 12.4478C7.75616 12.4478 7.55717 12.2488 7.55717 12.0033C7.55717 11.7579 7.75616 11.5589 8.00161 11.5589ZM11.5571 11.5589C11.8026 11.5589 12.0016 11.7579 12.0016 12.0033C12.0016 12.2488 11.7667 12.4478 11.5571 12.4478C11.3476 12.4478 11.1127 12.2488 11.1127 12.0033C11.1127 11.7579 11.3117 11.5589 11.5571 11.5589Z" fill="#382176"/>
</svg>
