<svg width="24" height="24" viewBox="0 0 24 24" fill="none" xmlns="http://www.w3.org/2000/svg">
<path d="M2 8C2.26522 8 2.51957 7.89464 2.70711 7.70711C2.89464 7.51957 3 7.26522 3 7V6C3 5.20435 3.31607 4.44129 3.87868 3.87868C4.44129 3.31607 5.20435 3 6 3H7C7.26522 3 7.51957 2.89464 7.70711 2.70711C7.89464 2.51957 8 2.26522 8 2C8 1.73478 7.89464 1.48043 7.70711 1.29289C7.51957 1.10536 7.26522 1 7 1H6C5.34339 1 4.69321 1.12933 4.08658 1.3806C3.47995 1.63188 2.92876 2.00017 2.46447 2.46447C1.52678 3.40215 1 4.67392 1 6V7C1 7.26522 1.10536 7.51957 1.29289 7.70711C1.48043 7.89464 1.73478 8 2 8Z" fill="white"/>
<path d="M18 1H17C16.7348 1 16.4804 1.10536 16.2929 1.29289C16.1054 1.48043 16 1.73478 16 2C16 2.26522 16.1054 2.51957 16.2929 2.70711C16.4804 2.89464 16.7348 3 17 3H18C18.7956 3 19.5587 3.31607 20.1213 3.87868C20.6839 4.44129 21 5.20435 21 6V7C21 7.26522 21.1054 7.51957 21.2929 7.70711C21.4804 7.89464 21.7348 8 22 8C22.2652 8 22.5196 7.89464 22.7071 7.70711C22.8946 7.51957 23 7.26522 23 7V6C23 5.34339 22.8707 4.69321 22.6194 4.08658C22.3681 3.47995 21.9998 2.92876 21.5355 2.46447C21.0712 2.00017 20.52 1.63188 19.9134 1.3806C19.3068 1.12933 18.6566 1 18 1Z" fill="white"/>
<path d="M22 16C21.7348 16 21.4804 16.1054 21.2929 16.2929C21.1054 16.4804 21 16.7348 21 17V18C21 18.7956 20.6839 19.5587 20.1213 20.1213C19.5587 20.6839 18.7956 21 18 21H17C16.7348 21 16.4804 21.1054 16.2929 21.2929C16.1054 21.4804 16 21.7348 16 22C16 22.2652 16.1054 22.5196 16.2929 22.7071C16.4804 22.8946 16.7348 23 17 23H18C18.6566 23 19.3068 22.8707 19.9134 22.6194C20.52 22.3681 21.0712 21.9998 21.5355 21.5355C21.9998 21.0712 22.3681 20.52 22.6194 19.9134C22.8707 19.3068 23 18.6566 23 18V17C23 16.7348 22.8946 16.4804 22.7071 16.2929C22.5196 16.1054 22.2652 16 22 16Z" fill="white"/>
<path d="M7 21H6C5.20435 21 4.44129 20.6839 3.87868 20.1213C3.31607 19.5587 3 18.7956 3 18V17C3 16.7348 2.89464 16.4804 2.70711 16.2929C2.51957 16.1054 2.26522 16 2 16C1.73478 16 1.48043 16.1054 1.29289 16.2929C1.10536 16.4804 1 16.7348 1 17V18C1 18.6566 1.12933 19.3068 1.3806 19.9134C1.63188 20.52 2.00017 21.0712 2.46447 21.5355C3.40215 22.4732 4.67392 23 6 23H7C7.26522 23 7.51957 22.8946 7.70711 22.7071C7.89464 22.5196 8 22.2652 8 22C8 21.7348 7.89464 21.4804 7.70711 21.2929C7.51957 21.1054 7.26522 21 7 21Z" fill="white"/>
<path d="M18 16C17.9975 15.0499 17.7244 14.1201 17.2126 13.3196C16.7007 12.5191 15.9714 11.881 15.11 11.48C15.6832 10.7804 15.9975 9.90445 16 9C16 7.93913 15.5786 6.92172 14.8284 6.17157C14.0783 5.42143 13.0609 5 12 5C10.9391 5 9.92172 5.42143 9.17157 6.17157C8.42143 6.92172 8 7.93913 8 9C8.00245 9.90445 8.3168 10.7804 8.89 11.48C8.0286 11.881 7.29927 12.5191 6.78744 13.3196C6.27561 14.1201 6.00247 15.0499 6 16C6 16.7956 6.31607 17.5587 6.87868 18.1213C7.44129 18.6839 8.20435 19 9 19H15C15.7956 19 16.5587 18.6839 17.1213 18.1213C17.6839 17.5587 18 16.7956 18 16Z" fill="white"/>
</svg>
