<svg width="48" height="48" viewBox="0 0 48 48" fill="none" xmlns="http://www.w3.org/2000/svg">
<rect width="48" height="48" rx="24" fill="#D9DCFC"/>
<path d="M30 14H18C17.3434 14 16.6932 14.1293 16.0866 14.3806C15.48 14.6319 14.9288 15.0002 14.4645 15.4645C13.5268 16.4021 13 17.6739 13 19V27C12.9998 28.1527 13.3978 29.27 14.1267 30.1629C14.8556 31.0558 15.8706 31.6695 17 31.9V34C16.9992 34.3954 17.1156 34.7822 17.3345 35.1115C17.5534 35.4408 17.8651 35.6978 18.23 35.85C18.4748 35.9486 18.7361 35.9995 19 36C19.5296 35.9978 20.0366 35.7856 20.41 35.41L23.83 32H30C30.6566 32 31.3068 31.8707 31.9134 31.6194C32.52 31.3681 33.0712 30.9998 33.5355 30.5355C33.9998 30.0712 34.3681 29.52 34.6194 28.9134C34.8707 28.3068 35 27.6566 35 27V19C35 18.3434 34.8707 17.6932 34.6194 17.0866C34.3681 16.48 33.9998 15.9288 33.5355 15.4645C33.0712 15.0002 32.52 14.6319 31.9134 14.3806C31.3068 14.1293 30.6566 14 30 14ZM18.5 24.5C18.2033 24.5 17.9133 24.412 17.6666 24.2472C17.42 24.0824 17.2277 23.8481 17.1142 23.574C17.0006 23.2999 16.9709 22.9983 17.0288 22.7074C17.0867 22.4164 17.2296 22.1491 17.4393 21.9393C17.6491 21.7296 17.9164 21.5867 18.2074 21.5288C18.4983 21.4709 18.7999 21.5006 19.074 21.6142C19.3481 21.7277 19.5824 21.92 19.7472 22.1666C19.912 22.4133 20 22.7033 20 23C20 23.3978 19.842 23.7794 19.5607 24.0607C19.2794 24.342 18.8978 24.5 18.5 24.5ZM24 24.5C23.7033 24.5 23.4133 24.412 23.1666 24.2472C22.92 24.0824 22.7277 23.8481 22.6142 23.574C22.5006 23.2999 22.4709 22.9983 22.5288 22.7074C22.5867 22.4164 22.7296 22.1491 22.9393 21.9393C23.1491 21.7296 23.4164 21.5867 23.7074 21.5288C23.9983 21.4709 24.2999 21.5006 24.574 21.6142C24.8481 21.7277 25.0824 21.92 25.2472 22.1666C25.412 22.4133 25.5 22.7033 25.5 23C25.5 23.3978 25.342 23.7794 25.0607 24.0607C24.7794 24.342 24.3978 24.5 24 24.5ZM29.5 24.5C29.2033 24.5 28.9133 24.412 28.6666 24.2472C28.42 24.0824 28.2277 23.8481 28.1142 23.574C28.0007 23.2999 27.9709 22.9983 28.0288 22.7074C28.0867 22.4164 28.2296 22.1491 28.4393 21.9393C28.6491 21.7296 28.9164 21.5867 29.2074 21.5288C29.4983 21.4709 29.7999 21.5006 30.074 21.6142C30.3481 21.7277 30.5824 21.92 30.7472 22.1666C30.912 22.4133 31 22.7033 31 23C31 23.3978 30.842 23.7794 30.5607 24.0607C30.2794 24.342 29.8978 24.5 29.5 24.5Z" fill="white"/>
</svg>
