<svg width="43" height="26" viewBox="0 0 43 26" fill="none" xmlns="http://www.w3.org/2000/svg">
<path fill-rule="evenodd" clip-rule="evenodd" d="M21.4572 22.4547C19.2783 24.3399 16.4519 25.4779 13.3635 25.4779C6.47222 25.4779 0.885742 19.8119 0.885742 12.8225C0.885742 5.83304 6.47222 0.166992 13.3635 0.166992C16.4519 0.166992 19.2783 1.30503 21.4572 3.19021C23.636 1.30503 26.4624 0.166992 29.5508 0.166992C36.4421 0.166992 42.0286 5.83304 42.0286 12.8225C42.0286 19.8119 36.4421 25.4779 29.5508 25.4779C26.4624 25.4779 23.636 24.3399 21.4572 22.4547Z" fill="#ED0006"/>
<path fill-rule="evenodd" clip-rule="evenodd" d="M21.4573 22.4547C24.1402 20.1335 25.8414 16.6795 25.8414 12.8225C25.8414 8.96546 24.1402 5.51146 21.4573 3.19021C23.6361 1.30503 26.4625 0.166992 29.5509 0.166992C36.4422 0.166992 42.0287 5.83304 42.0287 12.8225C42.0287 19.8119 36.4422 25.4779 29.5509 25.4779C26.4625 25.4779 23.6361 24.3399 21.4573 22.4547Z" fill="#F9A000"/>
<path fill-rule="evenodd" clip-rule="evenodd" d="M21.4573 3.19043C24.1401 5.51168 25.8413 8.96566 25.8413 12.8226C25.8413 16.6796 24.1401 20.1336 21.4573 22.4548C18.7744 20.1336 17.0732 16.6796 17.0732 12.8226C17.0732 8.96566 18.7744 5.51168 21.4573 3.19043Z" fill="#FF5E00"/>
</svg>
