<svg width="46" height="15" viewBox="0 0 46 15" fill="none" xmlns="http://www.w3.org/2000/svg">
<path fill-rule="evenodd" clip-rule="evenodd" d="M11.429 14.8065H7.55183L4.64443 3.68569C4.50643 3.17414 4.21343 2.72189 3.78242 2.50874C2.7068 1.97309 1.52153 1.5468 0.228516 1.3318V0.903646H6.47431C7.33633 0.903646 7.98283 1.5468 8.09059 2.29374L9.5991 10.3155L13.4744 0.903646H17.2438L11.429 14.8065ZM19.3988 14.8065H15.7371L18.7523 0.903646H22.414L19.3988 14.8065ZM27.1512 4.75515C27.259 4.00635 27.9055 3.5782 28.6598 3.5782C29.845 3.4707 31.1361 3.6857 32.2137 4.2195L32.8602 1.22616C31.7827 0.798009 30.5974 0.583008 29.5218 0.583008C25.9679 0.583008 23.3818 2.50875 23.3818 5.18145C23.3818 7.21469 25.2136 8.28229 26.5066 8.92544C27.9055 9.56674 28.4443 9.99489 28.3365 10.6362C28.3365 11.5981 27.259 12.0263 26.1834 12.0263C24.8903 12.0263 23.5973 11.7056 22.414 11.17L21.7674 14.1652C23.0605 14.699 24.4593 14.914 25.7524 14.914C29.7373 15.0196 32.2137 13.0957 32.2137 10.208C32.2137 6.57154 27.1512 6.35839 27.1512 4.75515ZM45.0285 14.8065L42.1211 0.903646H38.9982C38.3517 0.903646 37.7052 1.3318 37.4897 1.97309L32.1059 14.8065H35.8753L36.6277 12.7751H41.2591L41.6901 14.8065H45.0285ZM39.537 4.64765L40.6126 9.88739H37.5975L39.537 4.64765Z" fill="#172B85"/>
</svg>
