<svg width="46" height="20" viewBox="0 0 46 20" fill="none" xmlns="http://www.w3.org/2000/svg">
<path fill-rule="evenodd" clip-rule="evenodd" d="M6.26161 4.37676C7.12111 4.44946 7.98061 3.94061 8.5178 3.29546C9.04604 2.63215 9.39521 1.74166 9.30568 0.833008C8.54466 0.869354 7.60458 1.34186 7.06739 2.00517C6.57497 2.57763 6.15417 3.50445 6.26161 4.37676ZM16.4861 16.0802V1.9143H21.7237C24.4276 1.9143 26.3167 3.8043 26.3167 6.56662C26.3167 9.32893 24.3918 11.2371 21.6521 11.2371H18.6528V16.0802H16.4861ZM9.29665 4.5494C8.53945 4.50517 7.84853 4.78052 7.29045 5.00292C6.93132 5.14604 6.6272 5.26724 6.39583 5.26724C6.13619 5.26724 5.81951 5.13956 5.46395 4.99621C4.99806 4.80837 4.46542 4.59361 3.90685 4.60392C2.62655 4.62209 1.43578 5.3581 0.782198 6.53027C-0.560776 8.8746 0.433025 12.3457 1.73123 14.2538C2.36691 15.1988 3.12793 16.2347 4.13068 16.1984C4.57183 16.1815 4.88917 16.0448 5.21759 15.9034C5.59568 15.7405 5.98846 15.5714 6.60175 15.5714C7.19378 15.5714 7.56938 15.7361 7.92994 15.8943C8.27277 16.0446 8.60199 16.189 9.09073 16.1802C10.1293 16.162 10.7829 15.2352 11.4186 14.2902C12.1046 13.2759 12.406 12.2861 12.4518 12.1359L12.4571 12.1185C12.456 12.1174 12.4476 12.1135 12.4326 12.1065L12.4326 12.1065C12.2033 11.9999 10.4505 11.1856 10.4337 9.00181C10.4168 7.16885 11.824 6.24016 12.0455 6.09397C12.0589 6.08507 12.068 6.07907 12.0721 6.07594C11.1768 4.73113 9.78012 4.58575 9.29665 4.5494ZM30.2741 16.1893C31.635 16.1893 32.8974 15.4896 33.4704 14.381H33.5151V16.0802H35.5206V9.02907C35.5206 6.9846 33.9091 5.66705 31.429 5.66705C29.1281 5.66705 27.427 7.00277 27.3643 8.83825H29.3161C29.4773 7.96595 30.2741 7.39349 31.3664 7.39349C32.6914 7.39349 33.4345 8.02047 33.4345 9.17446V9.9559L30.7307 10.1195C28.2149 10.2739 26.854 11.3189 26.854 13.1362C26.854 14.9717 28.2596 16.1893 30.2741 16.1893ZM30.8559 14.5083C29.7009 14.5083 28.9668 13.9449 28.9668 13.0817C28.9668 12.1912 29.6741 11.6733 31.026 11.5915L33.4344 11.437V12.2366C33.4344 13.5633 32.3242 14.5083 30.8559 14.5083ZM42.1728 16.6345C41.3043 19.1151 40.3105 19.9329 38.1975 19.9329C38.0364 19.9329 37.4992 19.9148 37.3739 19.8784V18.1792C37.5082 18.1974 37.8394 18.2156 38.0095 18.2156C38.9675 18.2156 39.5047 17.8067 39.836 16.7436L40.0329 16.1166L36.3621 5.80336H38.6273L41.179 14.1721H41.2237L43.7754 5.80336H45.9778L42.1728 16.6345ZM18.6526 3.76796H21.1505C23.0307 3.76796 24.1051 4.78565 24.1051 6.5757C24.1051 8.36575 23.0307 9.39253 21.1416 9.39253H18.6526V3.76796Z" fill="black"/>
</svg>
