<svg width="80" height="42" viewBox="0 0 80 42" fill="none" xmlns="http://www.w3.org/2000/svg">
<g clip-path="url(#clip0_2022_106)">
<path d="M32.2501 11.4388C24.7986 5.6314 8.99949 13.421 6.69092 0C14.4168 5.50939 29.8893 -1.96814 32.249 11.4388H32.2501Z" fill="white"/>
<path d="M12.0779 8.25879C18.8805 13.1251 32.6141 6.47566 34.8507 18.2945C28.1503 13.7542 13.6521 19.7766 12.0779 8.25879Z" fill="white"/>
<path d="M36.2788 24.6217C30.3764 20.3424 18.7491 26.0908 16.887 15.9971C22.8467 20.2164 34.2487 14.52 36.2788 24.6217Z" fill="white"/>
<path d="M47.7139 11.4388C55.1643 5.6314 70.9634 13.421 73.272 0C65.5461 5.50939 50.0736 -1.96814 47.7139 11.4388Z" fill="white"/>
<path d="M67.8851 8.25879C61.0825 13.1251 47.3489 6.47566 45.1123 18.2945C51.8127 13.7542 66.3109 19.7766 67.8851 8.25879Z" fill="white"/>
<path d="M43.6841 24.6217C49.5864 20.3424 61.2138 26.0908 63.0759 15.9971C57.1162 20.2164 45.7141 14.52 43.6841 24.6217Z" fill="white"/>
<path d="M34.8152 13.0371C39.2341 15.7413 41.0701 15.7603 45.3514 13.0371L40.0833 22.4248L34.8152 13.0371Z" fill="white"/>
<path d="M2.78005 33.7167C2.60375 33.7247 2.46605 33.7627 2.36486 33.8317C2.26472 33.8997 2.2136 33.9827 2.2136 34.0787V34.1027C2.2136 34.1667 2.21986 34.2577 2.23238 34.3737C2.2449 34.4907 2.28871 34.6657 2.36486 34.8988L4.13828 40.3491H4.20087L5.66029 35.9718L5.3077 34.7417C5.2159 34.4207 5.08341 34.1707 4.91128 33.9937C4.73916 33.8167 4.48149 33.7247 4.13724 33.7167V33.3906H6.96741V33.7167C6.69931 33.7647 6.51467 33.8277 6.41348 33.9037C6.31333 33.9797 6.26221 34.1187 6.26221 34.3197C6.26221 34.3437 6.26639 34.3797 6.27473 34.4277C6.28308 34.4757 6.2956 34.5287 6.31229 34.5847C6.31229 34.5927 6.31437 34.6007 6.31855 34.6087C6.32272 34.6167 6.3248 34.6287 6.3248 34.6447C6.33315 34.6687 6.3415 34.6947 6.34984 34.7227C6.35819 34.7507 6.36653 34.7767 6.37488 34.8008L8.00955 40.2031H8.08466L9.82053 35.0178C9.83722 34.9858 9.84765 34.9538 9.85182 34.9218C9.856 34.8898 9.86226 34.8578 9.8706 34.8258C9.8706 34.8098 9.87269 34.7957 9.87686 34.7837C9.88103 34.7717 9.88312 34.7617 9.88312 34.7537C9.89146 34.7377 9.89981 34.7197 9.90816 34.6997C9.9165 34.6797 9.92485 34.6537 9.93319 34.6217C9.94988 34.5657 9.96449 34.5157 9.97701 34.4707C9.98952 34.4267 9.99996 34.3807 10.0083 34.3317C10.0166 34.3077 10.0208 34.2837 10.0208 34.2597V34.1877C10.0208 34.0347 9.96866 33.9167 9.8633 33.8317C9.75794 33.7477 9.63901 33.7047 9.50444 33.7047H9.49192L9.30311 33.7167V33.3906H11.5804V33.7167H11.5053C11.2789 33.7167 11.0943 33.8007 10.9513 33.9697C10.8084 34.1387 10.6916 34.3277 10.5987 34.5367C10.557 34.6417 10.5195 34.7417 10.4861 34.8378C10.4527 34.9338 10.4235 35.0228 10.3985 35.1028L8.04606 42.0003H7.50465L5.9576 36.9479H5.89501L4.23426 42.0003H3.59269L1.32898 34.9338C1.25387 34.7007 1.16937 34.5097 1.07757 34.3607C0.984725 34.2117 0.892925 34.0937 0.801124 34.0047C0.674898 33.9007 0.553889 33.8297 0.436008 33.7937C0.318128 33.7577 0.222155 33.7357 0.147045 33.7277H0.0594174C0.0510719 33.7277 0.0427264 33.7257 0.0343809 33.7217C0.0260354 33.7177 0.0135172 33.7157 -0.00317383 33.7157V33.3896H2.77692V33.7157L2.78005 33.7167Z" fill="white"/>
<path d="M15.2575 33.3906V33.7166C14.8715 33.7407 14.6222 33.8477 14.5095 34.0367C14.3969 34.2257 14.3312 34.4327 14.3145 34.6577V40.5661C14.3312 40.7912 14.3958 40.9982 14.5095 41.1872C14.6222 41.3762 14.8726 41.4822 15.2575 41.5072V41.8332H12.3647V41.5072C12.6829 41.4912 12.9051 41.4132 13.0313 41.2722C13.1576 41.1312 13.2369 40.9812 13.2702 40.8202C13.2869 40.7402 13.2974 40.6591 13.3015 40.5791C13.3057 40.4991 13.3078 40.4261 13.3078 40.3621V34.8637C13.3078 34.7997 13.3057 34.7267 13.3015 34.6467C13.2974 34.5667 13.2869 34.4857 13.2702 34.4057C13.2369 34.2447 13.1565 34.0947 13.0313 33.9537C12.9051 33.8127 12.6829 33.7346 12.3647 33.7186V33.3926H15.2575V33.3906Z" fill="white"/>
<path d="M24.8424 33.7167C24.5409 33.7567 24.327 33.8297 24.2008 33.9337C24.0746 34.0377 23.9911 34.1467 23.9494 34.2587C23.9327 34.3307 23.9223 34.3997 23.9181 34.4637C23.9139 34.5277 23.9118 34.5847 23.9118 34.6327V34.7897C23.9118 34.8138 23.9097 34.8358 23.9056 34.8558C23.9014 34.8758 23.8993 34.8938 23.8993 34.9098V42.0003H23.2077L18.0126 34.5957H17.9375V40.6852C17.9375 40.9342 18.0356 41.1332 18.2327 41.2822C18.4299 41.4312 18.6583 41.5052 18.9181 41.5052H18.9431V41.8313H16.3894V41.5052C16.8255 41.4972 17.104 41.3802 17.226 41.1552C17.3471 40.9302 17.4086 40.6492 17.4086 40.3111V34.8128C17.4086 34.4667 17.3356 34.2157 17.1885 34.0587C17.0414 33.9017 16.8807 33.8037 16.7044 33.7637C16.6544 33.7477 16.6012 33.7357 16.5469 33.7277C16.4927 33.7197 16.4395 33.7157 16.3894 33.7157V33.3896H18.5655L23.2828 40.2631H23.3704V35.0178C23.3704 34.5757 23.3162 34.2687 23.2066 34.0957C23.0971 33.9227 22.9761 33.8167 22.8415 33.7757C22.7914 33.7597 22.7414 33.7477 22.6903 33.7397C22.6402 33.7317 22.5932 33.7277 22.5515 33.7277H22.4889C22.4722 33.7277 22.4555 33.7257 22.4389 33.7217C22.4222 33.7177 22.3971 33.7157 22.3637 33.7157V33.3896H24.8413V33.7157L24.8424 33.7167Z" fill="white"/>
<path d="M34.1634 37.346C33.8702 37.386 33.6564 37.487 33.5218 37.647C33.3872 37.808 33.3205 38.053 33.3205 38.382V40.0102C33.3205 40.3562 33.381 40.6172 33.503 40.7942C33.624 40.9712 33.8441 41.0762 34.1634 41.1082C34.0966 41.1402 34.0267 41.1722 33.9558 41.2042C33.8848 41.2363 33.8066 41.2723 33.7231 41.3133C33.3121 41.4823 32.8218 41.6373 32.2512 41.7773C31.6806 41.9183 31.0734 41.9883 30.4277 41.9883C29.1279 41.9883 28.0691 41.5843 27.2512 40.7762C26.4333 39.9682 26.0244 38.9171 26.0244 37.623C26.0244 36.1839 26.4897 35.0908 27.4202 34.3428C28.3507 33.5947 29.445 33.2217 30.7031 33.2217C31.2143 33.2217 31.6482 33.2577 32.005 33.3297C32.3618 33.4017 32.6987 33.5187 33.0179 33.6797L33.0931 35.1988H32.7665C32.6236 34.7968 32.3722 34.4798 32.0113 34.2458C31.6503 34.0127 31.2643 33.8597 30.8544 33.7877C30.7542 33.7637 30.6551 33.7477 30.5592 33.7397C30.4632 33.7317 30.3641 33.7277 30.2639 33.7277C29.4085 33.7277 28.767 33.9467 28.3392 34.3848C27.9115 34.8228 27.6142 35.3028 27.4463 35.8259C27.3284 36.1799 27.2554 36.5189 27.2262 36.8449C27.197 37.17 27.1824 37.43 27.1824 37.623C27.1824 38.8371 27.4859 39.7851 28.0941 40.4692C28.7023 41.1522 29.4085 41.4943 30.2139 41.4943C30.8512 41.4943 31.3144 41.4203 31.6034 41.2713C31.8923 41.1222 32.0874 40.9602 32.1886 40.7832C32.2554 40.6622 32.2929 40.5502 32.3013 40.4452C32.3096 40.3412 32.3138 40.2522 32.3138 40.1802V38.4321C32.3138 38.344 32.3075 38.249 32.295 38.149C32.2825 38.049 32.247 37.93 32.1886 37.793C32.1302 37.697 32.0436 37.606 31.9309 37.522C31.8172 37.438 31.6399 37.379 31.3968 37.347V37.0209H34.1644V37.347L34.1634 37.346Z" fill="white"/>
<path d="M40.7166 35.2357C40.6071 34.8817 40.4037 34.5867 40.1064 34.3496C39.809 34.1126 39.4919 33.9416 39.157 33.8376C39.0392 33.8056 38.9223 33.7796 38.8045 33.7596C38.6866 33.7396 38.5739 33.7296 38.4644 33.7296C37.9949 33.7296 37.6131 33.8406 37.32 34.0616C37.0269 34.2826 36.8798 34.5827 36.8798 34.9597C36.8798 35.3777 37.0248 35.7077 37.3137 35.9488C37.6027 36.1898 37.9741 36.4148 38.4268 36.6238C38.527 36.6718 38.6302 36.7188 38.7346 36.7628C38.8389 36.8068 38.9463 36.8528 39.0559 36.9018C39.1894 36.9578 39.3198 37.0148 39.446 37.0708C39.5722 37.1268 39.6932 37.1788 39.8111 37.2278C40.4068 37.4929 40.8846 37.7909 41.2455 38.1199C41.6065 38.4499 41.7859 38.932 41.7859 39.567C41.7859 39.68 41.7755 39.796 41.7546 39.917C41.7337 40.0381 41.7024 40.1621 41.6607 40.2911C41.5094 40.7171 41.2184 41.1071 40.7865 41.4612C40.3546 41.8152 39.7569 41.9922 38.9943 41.9922C38.6845 41.9922 38.3903 41.9722 38.1139 41.9322C37.8374 41.8922 37.5641 41.8362 37.296 41.7632C37.0613 41.6912 36.8245 41.6062 36.5856 41.5102C36.3467 41.4142 36.0974 41.3011 35.8376 41.1721L35.75 39.58H36.064C36.1808 40.0791 36.5021 40.5171 37.0258 40.8941C37.5495 41.2721 38.118 41.4732 38.7304 41.4972H38.818C39.4137 41.4972 39.8956 41.3501 40.2649 41.0571C40.6342 40.7641 40.8189 40.3961 40.8189 39.954C40.8189 39.416 40.6426 39.022 40.291 38.772C39.9384 38.5229 39.5316 38.3059 39.0705 38.1209C39.0204 38.0969 38.9672 38.0749 38.9129 38.0549C38.8587 38.0349 38.8055 38.0129 38.7554 37.9889C38.5541 37.9089 38.3653 37.8279 38.189 37.7479C38.0127 37.6679 37.8489 37.5869 37.6987 37.5069C37.1458 37.2259 36.7306 36.9218 36.4531 36.5968C36.1767 36.2708 36.0379 35.8468 36.0379 35.3247C36.0379 34.7137 36.2768 34.2116 36.7546 33.8176C37.2324 33.4236 37.8739 33.2266 38.6793 33.2266C38.9808 33.2266 39.3208 33.2726 39.6985 33.3656C40.0761 33.4576 40.4788 33.6246 40.9065 33.8656L41.0327 35.2407H40.7187L40.7166 35.2357Z" fill="white"/>
<path d="M50.6915 35.3437H50.2889C49.9112 34.8937 49.5534 34.6047 49.2133 34.4757C48.8733 34.3467 48.5947 34.2826 48.3767 34.2826H48.3392C48.1879 34.2826 48.0564 34.3026 47.9427 34.3426C47.8301 34.3827 47.7727 34.5237 47.7727 34.7647V40.7821C47.781 40.8951 47.8269 40.9971 47.9114 41.0891C47.9949 41.1821 48.1837 41.2281 48.4779 41.2281H48.7418V41.8312H44.7923V41.2281H45.0437C45.3869 41.2281 45.5924 41.1681 45.6602 41.0471C45.727 40.9261 45.7604 40.7781 45.7604 40.6011V34.7647C45.7604 34.5237 45.7041 34.3827 45.5904 34.3426C45.4766 34.3026 45.3494 34.2826 45.2065 34.2826H45.1689C45.1105 34.2826 45.0531 34.2846 44.9989 34.2886C44.9446 34.2926 44.8925 34.2986 44.8413 34.3066C44.615 34.3387 44.3782 34.4297 44.1309 34.5777C43.8837 34.7267 43.5874 34.9817 43.2442 35.3437H42.8416L43.4205 33.5586H50.1251L50.6915 35.3437Z" fill="white"/>
<path d="M55.7364 42.0002C54.6213 41.9922 53.625 41.6282 52.7487 40.9092C51.8725 40.1901 51.4343 39.118 51.4343 37.6959C51.4343 36.3858 51.8349 35.3408 52.6361 34.5607C53.4372 33.7807 54.47 33.3906 55.7364 33.3906C56.8683 33.3906 57.8708 33.7486 58.7429 34.4637C59.615 35.1798 60.0511 36.2568 60.0511 37.6959C60.0511 39.135 59.615 40.1901 58.7429 40.9092C57.8708 41.6292 56.8683 41.9882 55.7364 41.9882V42.0002ZM56.1579 41.2412C56.3217 41.2172 56.4865 41.1612 56.6544 41.0722C56.9643 40.9112 57.248 40.5821 57.5036 40.0831C57.7592 39.5851 57.8875 38.789 57.8875 37.6949C57.8875 36.3928 57.7028 35.4938 57.3346 34.9997C56.9653 34.5057 56.5585 34.2217 56.1141 34.1497C56.0473 34.1337 55.9816 34.1237 55.919 34.1197C55.8564 34.1157 55.7949 34.1137 55.7364 34.1137C55.1157 34.1137 54.6046 34.3827 54.2019 34.9217C53.7992 35.4608 53.5979 36.3848 53.5979 37.6949C53.5979 38.78 53.7241 39.5701 53.9755 40.0641C54.2269 40.5581 54.5034 40.8902 54.8059 41.0592C54.9822 41.1552 55.1522 41.2162 55.315 41.2402C55.4777 41.2642 55.6186 41.2762 55.7364 41.2762C55.8543 41.2762 55.9941 41.2642 56.1579 41.2402V41.2412Z" fill="white"/>
<path d="M62.2386 34.7897C62.2386 34.5406 62.1823 34.3736 62.0685 34.2896C61.9559 34.2056 61.7733 34.1626 61.5209 34.1626H61.282V33.5596H65.219V34.1626H64.9676C64.6995 34.1626 64.5127 34.2046 64.4074 34.2896C64.302 34.3736 64.2499 34.5406 64.2499 34.7897V39.167C64.2499 39.272 64.2561 39.412 64.2686 39.589C64.2811 39.766 64.3208 39.947 64.3886 40.132C64.4887 40.4211 64.6796 40.6851 64.9613 40.9221C65.2419 41.1591 65.6801 41.2781 66.2757 41.2781C67.1729 41.2781 67.7685 41.0691 68.0617 40.6511C68.3548 40.233 68.5019 39.61 68.5019 38.7819V34.8027C68.5019 34.5536 68.4476 34.3866 68.3381 34.3026C68.2286 34.2186 67.9688 34.1716 67.5578 34.1636V33.5606H70.2242V34.1636H69.9728C69.7047 34.1636 69.518 34.2056 69.4126 34.2906C69.3072 34.3746 69.2551 34.5416 69.2551 34.7907V38.8669C69.2551 39.928 69.0266 40.7141 68.5697 41.2241C68.1128 41.7352 67.2845 41.9902 66.0859 41.9902C65.0375 41.9902 64.2499 41.8552 63.721 41.5861C63.1921 41.3171 62.8196 41.0171 62.6016 40.6881C62.4253 40.4231 62.321 40.172 62.2876 39.934C62.2542 39.697 62.2375 39.534 62.2375 39.446V34.7917L62.2386 34.7897Z" fill="white"/>
<path d="M74.5409 40.6021C74.5409 40.6341 74.543 40.6741 74.5472 40.7231C74.5514 40.7711 74.5576 40.8191 74.566 40.8681C74.591 40.9571 74.6411 41.0391 74.7172 41.1151C74.7923 41.1921 74.9102 41.2301 75.0698 41.2301H75.3338V41.8331H71.5605V41.2301H71.8245C72.1176 41.2301 72.3064 41.1841 72.3909 41.0911C72.4744 40.9991 72.5213 40.8961 72.5297 40.7841V34.6096C72.5213 34.4976 72.4754 34.3946 72.3909 34.3026C72.3075 34.2106 72.1187 34.1636 71.8245 34.1636H71.5731V33.5605H75.46C76.5167 33.5605 77.4181 33.7036 78.1639 33.9886C78.9098 34.2736 79.2833 34.8986 79.2833 35.8637C79.2833 36.3787 79.1237 36.8128 78.8055 37.1658C78.4863 37.5198 78.0544 37.7328 77.5099 37.8049L77.4598 37.9379L78.3152 39.481C78.3903 39.626 78.4644 39.76 78.5353 39.885C78.6062 40.01 78.6761 40.124 78.7429 40.229C78.9025 40.494 79.0736 40.7111 79.2582 40.8801C79.4429 41.0491 79.6901 41.1651 79.9999 41.2301V41.8331H76.3519V41.2301H76.4907C76.5825 41.2301 76.6649 41.2001 76.7358 41.1401C76.8067 41.0801 76.8422 41.0061 76.8422 40.9171C76.8422 40.8851 76.8339 40.8431 76.8172 40.7901C76.8005 40.7381 76.7796 40.6801 76.7546 40.6151C76.7462 40.5991 76.7379 40.5831 76.7295 40.5671C76.7212 40.5511 76.7129 40.535 76.7045 40.519C76.6878 40.479 76.6711 40.443 76.6544 40.411C76.6377 40.379 76.6211 40.351 76.6044 40.327L75.4975 38.2889H74.542V40.6041L74.5409 40.6021ZM74.5409 37.5628H75.2201C75.3285 37.5628 75.4464 37.5588 75.5727 37.5508C75.6989 37.5428 75.8282 37.5188 75.9628 37.4788C76.2476 37.4068 76.5115 37.2558 76.7556 37.0268C76.9987 36.7978 77.1207 36.4178 77.1207 35.8867C77.1207 35.8147 77.1145 35.7077 77.102 35.5667C77.0894 35.4257 77.0498 35.2797 76.982 35.1267C76.8819 34.9176 76.7076 34.7246 76.4604 34.5476C76.2132 34.3706 75.8334 34.2826 75.3223 34.2826C74.9613 34.2826 74.7412 34.3366 74.6619 34.4456C74.5827 34.5536 74.542 34.7006 74.542 34.8856V37.5628H74.5409Z" fill="white"/>
</g>
<defs>
<clipPath id="clip0_2022_106">
<rect width="80" height="42" fill="white"/>
</clipPath>
</defs>
</svg>
