<svg width="42" height="26" viewBox="0 0 42 26" fill="none" xmlns="http://www.w3.org/2000/svg">
<path d="M25.7451 13.2326C25.7451 20.222 20.1586 25.8881 13.2673 25.8881C6.37603 25.8881 0.789551 20.222 0.789551 13.2326C0.789551 6.2432 6.37603 0.577148 13.2673 0.577148C20.1586 0.577148 25.7451 6.2432 25.7451 13.2326Z" fill="#ED0006"/>
<path d="M41.9323 13.2326C41.9323 20.222 36.3458 25.8881 29.4546 25.8881C22.5633 25.8881 16.9768 20.222 16.9768 13.2326C16.9768 6.2432 22.5633 0.577148 29.4546 0.577148C36.3458 0.577148 41.9323 6.2432 41.9323 13.2326Z" fill="#0099DF"/>
<path fill-rule="evenodd" clip-rule="evenodd" d="M21.3611 3.60059C24.0439 5.92183 25.7451 9.37582 25.7451 13.2328C25.7451 17.0898 24.0439 20.5437 21.3611 22.865C18.6782 20.5437 16.9771 17.0898 16.9771 13.2328C16.9771 9.37582 18.6782 5.92183 21.3611 3.60059Z" fill="#6C6BBD"/>
</svg>
